<svg width="1920" height="1200" viewBox="0 0 1920 1200" fill="none" xmlns="http://www.w3.org/2000/svg">
  <rect width="1920" height="1200" fill="#070A12"/>
  <rect width="1920" height="1200" fill="url(#baseFade)"/>

  <g opacity="0.95">
    <ellipse cx="360" cy="540" rx="520" ry="700" fill="url(#purpleAura)"/>
    <ellipse cx="1600" cy="680" rx="430" ry="600" fill="url(#greenAura)"/>
  </g>

  <g opacity="0.28">
    <path d="M0 140H1920" stroke="url(#gridH)" stroke-width="1"/>
    <path d="M0 310H1920" stroke="url(#gridH)" stroke-width="1"/>
    <path d="M0 480H1920" stroke="url(#gridH)" stroke-width="1"/>
    <path d="M0 650H1920" stroke="url(#gridH)" stroke-width="1"/>
    <path d="M0 820H1920" stroke="url(#gridH)" stroke-width="1"/>
    <path d="M0 990H1920" stroke="url(#gridH)" stroke-width="1"/>

    <path d="M150 0V1200" stroke="url(#gridV)" stroke-width="1"/>
    <path d="M410 0V1200" stroke="url(#gridV)" stroke-width="1"/>
    <path d="M670 0V1200" stroke="url(#gridV)" stroke-width="1"/>
    <path d="M930 0V1200" stroke="url(#gridV)" stroke-width="1"/>
    <path d="M1190 0V1200" stroke="url(#gridV)" stroke-width="1"/>
    <path d="M1450 0V1200" stroke="url(#gridV)" stroke-width="1"/>
    <path d="M1710 0V1200" stroke="url(#gridV)" stroke-width="1"/>
  </g>

  <g opacity="0.5">
    <path d="M35 1090C260 945 458 853 760 801" stroke="url(#leftTrail)" stroke-width="4" stroke-linecap="round"/>
    <path d="M58 1002C252 890 474 801 748 754" stroke="url(#leftTrailThin)" stroke-width="2" stroke-linecap="round"/>
    <path d="M1525 1038C1662 924 1768 808 1886 606" stroke="url(#rightTrail)" stroke-width="5" stroke-linecap="round"/>
    <path d="M1482 1110C1642 962 1762 834 1902 644" stroke="url(#rightTrailThin)" stroke-width="2" stroke-linecap="round"/>
    <path d="M1510 86C1706 178 1838 332 1915 548" stroke="url(#rightTrailThin)" stroke-width="2" stroke-linecap="round"/>
  </g>

  <g opacity="0.52">
    <rect x="55" y="520" width="44" height="292" fill="url(#leftBuilding)"/>
    <rect x="108" y="438" width="78" height="374" fill="url(#leftBuilding)"/>
    <rect x="205" y="566" width="52" height="246" fill="url(#leftBuilding)"/>
    <rect x="286" y="615" width="34" height="197" fill="url(#leftBuilding)"/>
    <rect x="338" y="588" width="55" height="224" fill="url(#leftBuilding)"/>
    <rect x="432" y="702" width="36" height="110" fill="url(#leftBuilding)"/>
    <rect x="495" y="642" width="30" height="170" fill="url(#leftBuilding)"/>
    <rect x="548" y="688" width="24" height="124" fill="url(#leftBuilding)"/>
    <rect x="676" y="654" width="20" height="158" fill="url(#leftBuilding)"/>

    <rect x="1372" y="640" width="18" height="172" fill="url(#rightBuilding)"/>
    <rect x="1442" y="600" width="24" height="212" fill="url(#rightBuilding)"/>
    <rect x="1506" y="705" width="18" height="107" fill="url(#rightBuilding)"/>
    <rect x="1590" y="682" width="26" height="130" fill="url(#rightBuilding)"/>
    <rect x="1660" y="620" width="44" height="192" fill="url(#rightBuilding)"/>
    <rect x="1740" y="712" width="30" height="100" fill="url(#rightBuilding)"/>
    <rect x="1795" y="658" width="42" height="154" fill="url(#rightBuilding)"/>
  </g>

  <g opacity="0.6">
    <path d="M0 910H1920" stroke="url(#horizonGlow)" stroke-width="2"/>
    <ellipse cx="280" cy="1004" rx="170" ry="28" fill="url(#leftReflection)"/>
    <ellipse cx="1655" cy="1010" rx="150" ry="26" fill="url(#rightReflection)"/>
  </g>

  <g opacity="0.25">
    <path d="M0 1200L780 840L1920 862V1200H0Z" fill="url(#floorGlow)"/>
    <path d="M0 1200L768 846" stroke="#5C2AA8" stroke-opacity="0.5"/>
    <path d="M240 1200L875 860" stroke="#5C2AA8" stroke-opacity="0.45"/>
    <path d="M490 1200L980 874" stroke="#5C2AA8" stroke-opacity="0.35"/>
    <path d="M1090 1200L1328 875" stroke="#8DD909" stroke-opacity="0.25"/>
    <path d="M1328 1200L1532 870" stroke="#8DD909" stroke-opacity="0.35"/>
    <path d="M1540 1200L1712 866" stroke="#8DD909" stroke-opacity="0.45"/>
  </g>

  <defs>
    <linearGradient id="baseFade" x1="960" y1="0" x2="960" y2="1200" gradientUnits="userSpaceOnUse">
      <stop stop-color="#0A1020"/>
      <stop offset="0.55" stop-color="#08101A"/>
      <stop offset="1" stop-color="#05070D"/>
    </linearGradient>

    <radialGradient id="purpleAura" cx="0" cy="0" r="1" gradientUnits="userSpaceOnUse" gradientTransform="translate(360 540) rotate(90) scale(700 520)">
      <stop stop-color="#6E27F5" stop-opacity="0.52"/>
      <stop offset="0.55" stop-color="#5D21D1" stop-opacity="0.24"/>
      <stop offset="1" stop-color="#5D21D1" stop-opacity="0"/>
    </radialGradient>

    <radialGradient id="greenAura" cx="0" cy="0" r="1" gradientUnits="userSpaceOnUse" gradientTransform="translate(1600 680) rotate(90) scale(600 430)">
      <stop stop-color="#B4FF18" stop-opacity="0.36"/>
      <stop offset="0.58" stop-color="#9DE60D" stop-opacity="0.16"/>
      <stop offset="1" stop-color="#9DE60D" stop-opacity="0"/>
    </radialGradient>

    <linearGradient id="gridH" x1="0" y1="0" x2="1920" y2="0" gradientUnits="userSpaceOnUse">
      <stop stop-color="white" stop-opacity="0"/>
      <stop offset="0.2" stop-color="white" stop-opacity="0.45"/>
      <stop offset="0.8" stop-color="white" stop-opacity="0.45"/>
      <stop offset="1" stop-color="white" stop-opacity="0"/>
    </linearGradient>

    <linearGradient id="gridV" x1="0" y1="0" x2="0" y2="1200" gradientUnits="userSpaceOnUse">
      <stop stop-color="white" stop-opacity="0"/>
      <stop offset="0.18" stop-color="white" stop-opacity="0.4"/>
      <stop offset="0.82" stop-color="white" stop-opacity="0.4"/>
      <stop offset="1" stop-color="white" stop-opacity="0"/>
    </linearGradient>

    <linearGradient id="leftTrail" x1="35" y1="1090" x2="760" y2="801" gradientUnits="userSpaceOnUse">
      <stop stop-color="#8128FF" stop-opacity="0"/>
      <stop offset="0.32" stop-color="#A13BFF" stop-opacity="0.95"/>
      <stop offset="1" stop-color="#8128FF" stop-opacity="0"/>
    </linearGradient>

    <linearGradient id="leftTrailThin" x1="58" y1="1002" x2="748" y2="754" gradientUnits="userSpaceOnUse">
      <stop stop-color="#D4A3FF" stop-opacity="0"/>
      <stop offset="0.34" stop-color="#C678FF" stop-opacity="0.8"/>
      <stop offset="1" stop-color="#D4A3FF" stop-opacity="0"/>
    </linearGradient>

    <linearGradient id="rightTrail" x1="1525" y1="1038" x2="1886" y2="606" gradientUnits="userSpaceOnUse">
      <stop stop-color="#A3FF12" stop-opacity="0"/>
      <stop offset="0.42" stop-color="#BFFF3A" stop-opacity="0.95"/>
      <stop offset="1" stop-color="#A3FF12" stop-opacity="0"/>
    </linearGradient>

    <linearGradient id="rightTrailThin" x1="1482" y1="1110" x2="1902" y2="644" gradientUnits="userSpaceOnUse">
      <stop stop-color="#DFFF89" stop-opacity="0"/>
      <stop offset="0.42" stop-color="#CFFF4A" stop-opacity="0.8"/>
      <stop offset="1" stop-color="#DFFF89" stop-opacity="0"/>
    </linearGradient>

    <linearGradient id="leftBuilding" x1="0" y1="438" x2="0" y2="812" gradientUnits="userSpaceOnUse">
      <stop stop-color="#8F42FF" stop-opacity="0.5"/>
      <stop offset="1" stop-color="#8F42FF" stop-opacity="0.05"/>
    </linearGradient>

    <linearGradient id="rightBuilding" x1="0" y1="600" x2="0" y2="812" gradientUnits="userSpaceOnUse">
      <stop stop-color="#BEFF33" stop-opacity="0.5"/>
      <stop offset="1" stop-color="#BEFF33" stop-opacity="0.05"/>
    </linearGradient>

    <linearGradient id="horizonGlow" x1="0" y1="910" x2="1920" y2="910" gradientUnits="userSpaceOnUse">
      <stop stop-color="#7836EA" stop-opacity="0"/>
      <stop offset="0.22" stop-color="#7836EA" stop-opacity="0.42"/>
      <stop offset="0.78" stop-color="#A3FF12" stop-opacity="0.42"/>
      <stop offset="1" stop-color="#A3FF12" stop-opacity="0"/>
    </linearGradient>

    <radialGradient id="leftReflection" cx="0" cy="0" r="1" gradientUnits="userSpaceOnUse" gradientTransform="translate(280 1004) rotate(90) scale(28 170)">
      <stop stop-color="#8C30FF" stop-opacity="0.85"/>
      <stop offset="1" stop-color="#8C30FF" stop-opacity="0"/>
    </radialGradient>

    <radialGradient id="rightReflection" cx="0" cy="0" r="1" gradientUnits="userSpaceOnUse" gradientTransform="translate(1655 1010) rotate(90) scale(26 150)">
      <stop stop-color="#B4FF18" stop-opacity="0.85"/>
      <stop offset="1" stop-color="#B4FF18" stop-opacity="0"/>
    </radialGradient>

    <linearGradient id="floorGlow" x1="960" y1="840" x2="960" y2="1200" gradientUnits="userSpaceOnUse">
      <stop stop-color="#1A1531" stop-opacity="0.08"/>
      <stop offset="1" stop-color="#000000" stop-opacity="0.4"/>
    </linearGradient>
  </defs>
</svg>
